<?xml version="1.0" standalone="no"?>
<!DOCTYPE svg PUBLIC "-//W3C//DTD SVG 20010904//EN"
 "http://www.w3.org/TR/2001/REC-SVG-20010904/DTD/svg10.dtd">
<svg version="1.0" xmlns="http://www.w3.org/2000/svg"
 width="500.000000pt" height="500.000000pt" viewBox="0 0 500.000000 500.000000"
 preserveAspectRatio="xMidYMid meet">

<g transform="translate(0.000000,500.000000) scale(0.100000,-0.100000)"
fill="#000000" stroke="none">
<path d="M0 2500 l0 -2500 2500 0 2500 0 0 2500 0 2500 -2500 0 -2500 0 0
-2500z m3720 2048 c33 -17 51 -35 68 -68 21 -43 22 -54 22 -325 0 -272 -1
-281 -23 -320 -13 -23 -39 -49 -62 -62 l-40 -22 -1191 -3 -1190 -3 -38 29
c-72 54 -76 75 -76 386 0 266 1 276 23 314 26 47 62 75 108 86 19 4 556 8
1194 9 l1161 1 44 -22z m-1450 -1223 c-60 -38 -47 -47 30 -20 23 8 64 21 91
29 l48 15 -64 -64 c-35 -35 -75 -71 -89 -80 -14 -10 -26 -21 -26 -26 0 -5 19
5 43 21 45 31 105 52 93 31 -11 -17 25 -13 46 6 36 32 29 4 -14 -58 -23 -35
-49 -70 -56 -77 -7 -8 -19 -28 -28 -45 -11 -23 4 -12 56 43 40 41 76 83 82 93
14 27 20 15 9 -16 -7 -18 -7 -28 0 -32 5 -4 7 -15 4 -26 -4 -13 -2 -19 9 -19
9 0 16 -4 16 -10 0 -5 3 -10 8 -10 13 0 54 97 73 173 l19 72 -7 -90 c-10 -131
-8 -177 9 -209 l15 -29 14 32 c17 38 39 40 40 4 1 -25 2 -24 11 10 6 20 16 37
24 37 8 0 14 7 14 15 0 8 5 15 10 15 6 0 10 -6 10 -14 0 -7 7 -19 16 -27 13
-11 14 -9 9 14 -5 18 -3 27 5 27 7 0 10 -7 6 -15 -3 -9 3 -19 16 -26 17 -9 23
-9 26 0 4 13 32 15 32 3 0 -5 14 -7 30 -4 23 3 30 9 30 28 0 12 5 26 10 29 8
5 7 11 -1 21 -6 8 -8 14 -4 14 4 0 2 7 -5 15 -11 13 -10 14 6 8 17 -6 18 -5 4
13 -8 10 -23 29 -34 42 -36 40 3 23 51 -24 69 -66 82 -74 50 -32 -33 44 -33
48 -5 40 14 -3 19 -2 14 6 -13 22 11 12 28 -10 9 -13 14 -17 11 -10 -11 22 4
13 40 -25 45 -48 153 -210 192 -288 31 -62 74 -190 94 -284 12 -57 4 -181 -12
-181 -5 0 -8 3 -8 8 1 4 1 21 -1 37 -1 25 -3 27 -9 11 -6 -16 -9 -17 -16 -6
-6 10 -11 8 -18 -11 -11 -25 -11 -25 -22 42 -5 31 -9 36 -25 32 -15 -4 -20
-14 -20 -42 0 -20 -5 -43 -10 -51 -8 -12 -10 -9 -10 11 0 32 -39 86 -50 69 -4
-7 -10 2 -15 22 l-8 33 -6 -35 c-7 -34 -7 -34 -15 -10 -8 24 -9 24 -17 5 -7
-19 -8 -18 -8 4 -1 16 -5 21 -16 17 -8 -3 -19 3 -25 14 -7 14 -18 18 -42 15
-17 -3 -35 -10 -39 -17 -8 -13 -13 -6 -22 37 -3 11 -6 2 -7 -20 -2 -34 -3 -36
-9 -15 l-7 25 -8 -30 -8 -30 -12 24 c-12 21 -14 22 -20 6 -8 -21 -18 -13 -39
28 l-14 27 -9 -42 -8 -43 -4 43 c-4 57 -22 53 -23 -5 -1 -27 -3 -39 -6 -28 -2
11 -6 30 -9 43 -6 29 -24 19 -24 -13 0 -13 -4 -27 -10 -30 -6 -4 -10 5 -10 19
0 32 -23 34 -38 4 -9 -19 -11 -12 -12 42 -1 67 -17 68 -22 1 -1 -17 -8 -31
-15 -31 -6 0 -17 -8 -23 -17 -10 -17 -10 -16 -9 2 1 11 1 36 0 55 l-1 35 -31
-53 c-17 -30 -33 -51 -36 -48 -3 3 0 13 7 21 22 26 -4 43 -30 20 -20 -18 -20
-18 -9 14 19 55 1 46 -28 -13 -25 -52 -52 -71 -67 -48 -7 11 11 38 20 29 9 -8
44 41 44 62 0 11 -3 11 -15 1 -19 -16 -19 -4 0 49 8 22 13 41 11 41 -1 0 -22
-38 -45 -84 -44 -87 -91 -137 -91 -97 0 11 9 38 21 60 11 22 22 66 25 98 l5
58 -20 -45 c-11 -25 -29 -63 -40 -85 l-21 -39 0 35 c0 20 7 58 15 85 8 27 15
54 14 59 -1 18 -20 -38 -41 -122 -21 -85 -45 -117 -33 -43 4 25 3 40 -3 40 -6
0 -13 8 -15 18 -3 9 -5 3 -6 -15 -1 -43 -21 -54 -21 -12 0 31 -1 32 -15 13
-13 -18 -14 -15 -16 31 0 28 -4 61 -8 75 -6 23 -8 21 -19 -20 -7 -25 -16 -70
-22 -100 -8 -51 -9 -49 -7 38 2 81 0 90 -10 65 -7 -15 -13 -41 -14 -58 -1 -39
-17 -89 -18 -61 -1 18 -2 18 -21 1 -20 -18 -20 -17 -20 16 0 26 -3 30 -10 19
-5 -8 -10 -25 -10 -37 0 -13 -5 -23 -11 -23 -8 0 -10 15 -7 45 3 24 2 42 -2
40 -5 -3 -12 -33 -16 -67 -4 -35 -10 -53 -12 -40 -3 23 -22 31 -22 10 0 -6 -6
-19 -14 -27 -8 -9 -19 -39 -24 -66 -7 -38 -10 -43 -11 -19 0 16 -7 39 -15 50
-14 18 -15 16 -22 -26 -6 -35 -9 -40 -15 -25 -7 18 -8 17 -9 -5 -2 -21 -3 -22
-7 -5 -3 11 -14 32 -24 47 -11 14 -19 43 -19 63 0 24 -4 34 -11 29 -21 -12 0
64 51 195 27 69 48 126 47 128 -2 1 -20 -14 -42 -35 -34 -34 -37 -35 -30 -12
4 14 13 32 20 40 7 8 20 31 30 50 l17 35 -41 -40 c-22 -21 -41 -45 -41 -52 0
-7 -5 -13 -10 -13 -7 0 -7 6 0 19 5 11 10 29 10 41 0 30 39 86 110 158 108
109 187 159 335 212 73 27 75 24 15 -15z m-512 -493 c-16 -35 -32 -62 -34 -59
-4 4 32 87 50 115 21 33 12 1 -16 -56z m419 -204 c-2 -13 -4 -3 -4 22 0 25 2
35 4 23 2 -13 2 -33 0 -45z m275 -20 c-7 -7 -12 -8 -12 -2 0 14 12 26 19 19 2
-3 -1 -11 -7 -17z m-704 -175 c-2 -104 -1 -231 1 -283 2 -52 0 -107 -4 -121
-6 -24 -4 -26 19 -22 14 3 26 12 26 19 0 8 5 14 11 14 6 0 8 -15 4 -44 -5 -30
-2 -52 9 -73 9 -18 11 -34 6 -39 -14 -14 3 -65 27 -81 20 -13 20 -12 17 34 -1
26 -8 73 -13 103 -6 30 -14 80 -17 111 -6 53 -5 59 20 80 15 13 26 33 26 48 0
14 5 43 10 63 13 44 75 150 84 141 3 -3 6 -2 6 4 0 6 14 16 30 22 17 5 30 17
30 25 0 9 7 16 15 16 8 0 15 9 15 19 0 33 66 64 130 62 78 -3 77 -3 77 -17 0
-12 -18 -23 -62 -40 -11 -4 -22 -8 -25 -9 -3 -2 -15 -6 -27 -10 -13 -4 -23
-11 -23 -15 0 -7 -37 -23 -51 -22 -3 1 -6 -12 -7 -29 -1 -25 3 -29 27 -29 16
0 34 -7 41 -15 17 -20 34 -19 26 1 -7 18 10 44 28 44 6 0 17 -14 24 -32 6 -17
14 -29 18 -26 3 3 0 15 -8 27 -10 16 -10 23 0 33 9 9 12 8 12 -9 0 -21 24 -38
41 -27 6 3 7 14 4 25 -4 11 -2 19 5 19 17 0 24 -31 11 -51 -6 -11 -7 -19 -2
-19 5 0 15 16 22 35 13 36 23 43 34 24 4 -6 14 -8 22 -4 9 3 30 -6 49 -20 40
-30 54 -32 54 -5 0 23 -44 115 -59 125 -16 9 0 36 28 47 41 17 51 17 51 0 1
-15 2 -15 14 1 16 21 30 23 23 3 -4 -10 -1 -13 9 -9 7 3 14 0 14 -6 0 -16 16
-14 34 5 9 8 16 12 16 7 0 -14 40 -13 40 0 1 7 7 0 15 -14 8 -15 26 -29 39
-33 23 -6 24 -9 21 -65 -4 -54 -2 -58 16 -54 22 6 25 -6 7 -27 -8 -8 -3 -7 14
3 38 24 48 21 48 -12 0 -37 20 -53 62 -49 22 2 36 10 44 26 16 33 22 36 39 22
20 -16 19 -46 -1 -54 -9 -4 -15 -9 -12 -11 2 -3 40 8 84 23 59 22 87 27 112
21 53 -11 57 -21 55 -117 l-3 -87 35 39 c26 29 36 35 40 24 3 -8 5 -19 4 -24
-5 -27 4 -25 19 3 l17 32 0 -72 c1 -60 7 -88 37 -162 65 -159 71 -242 27 -346
-22 -51 -78 -112 -106 -115 -69 -8 -136 -12 -124 -7 9 4 10 7 2 12 -7 5 9 17
38 30 36 18 50 30 54 50 3 14 8 33 12 43 5 12 -1 18 -24 23 -17 4 -31 10 -31
15 0 4 -8 10 -19 13 -10 2 -24 18 -32 36 -8 17 -16 31 -19 31 -3 0 -23 -52
-44 -116 -37 -110 -44 -121 -109 -191 l-69 -75 3 -117 c4 -104 7 -121 31 -161
14 -25 39 -54 55 -66 47 -35 241 -126 252 -119 6 3 11 2 11 -3 0 -19 331 -149
593 -234 86 -29 123 -45 113 -50 -8 -5 -63 -15 -123 -23 -156 -22 -320 -53
-383 -71 -121 -35 -339 -107 -415 -135 -303 -115 -544 -151 -765 -114 -122 20
-371 92 -535 155 -182 70 -499 153 -662 175 -29 4 -55 10 -57 14 -5 7 50 28
334 131 80 28 186 70 237 92 l91 39 1 67 c1 72 27 164 79 274 17 35 34 75 37
91 4 15 11 29 15 32 11 7 -16 -122 -39 -183 -11 -30 -17 -61 -14 -69 4 -10 2
-14 -4 -10 -13 8 -33 -59 -33 -112 0 -23 -7 -53 -16 -66 -18 -28 -11 -33 13
-10 8 8 19 13 24 10 5 -4 9 -2 9 3 0 5 19 14 41 21 51 15 138 80 138 103 1 9
8 23 16 32 8 8 15 19 15 25 0 6 4 11 10 11 5 0 12 11 16 24 3 14 13 26 22 28
14 3 14 4 0 19 -10 9 -14 26 -11 45 2 16 4 50 3 76 -1 28 4 48 10 48 5 0 1 17
-10 37 -11 21 -20 52 -20 69 0 17 -3 34 -7 37 -3 4 -7 17 -8 30 -2 19 -74 217
-94 256 -4 8 -17 18 -29 22 -16 6 -21 5 -16 -3 16 -25 12 -57 -7 -63 -10 -4
-19 -10 -19 -14 0 -4 -15 -6 -32 -4 l-33 4 40 -20 c47 -23 22 -28 -31 -6 -26
11 -34 11 -32 2 3 -6 27 -20 54 -29 l49 -17 -38 -1 c-21 0 -54 7 -73 15 -34
14 -35 14 -29 -5 17 -53 -57 5 -90 71 -35 68 -33 146 6 296 18 65 34 134 37
153 4 29 6 31 12 15 6 -17 8 -16 13 10 35 182 67 359 72 398 4 26 8 47 11 47
2 0 3 -84 2 -187z m846 122 c-6 -16 -24 -21 -24 -7 0 11 11 22 21 22 5 0 6 -7
3 -15z m-900 -42 c-4 -21 -10 -63 -14 -93 l-7 -55 -2 59 c-1 51 15 126 26 126
2 0 1 -17 -3 -37z m1273 0 c-3 -10 -5 -4 -5 12 0 17 2 24 5 18 2 -7 2 -21 0
-30z m-47 -59 c0 -8 -5 -12 -10 -9 -6 4 -8 11 -5 16 9 14 15 11 15 -7z m-45
-144 c20 0 30 21 14 31 -10 6 -8 9 9 9 24 0 31 -27 10 -48 -28 -28 -78 -7 -78
32 0 20 1 20 16 -2 8 -12 21 -22 29 -22z m-1106 -284 c-9 -8 -10 -7 -5 7 3 10
7 26 7 35 1 9 4 6 6 -7 3 -13 -1 -28 -8 -35z m16 -474 c-3 -3 -11 0 -18 7 -9
10 -8 11 6 5 10 -3 15 -9 12 -12z m-15 -17 c10 -12 10 -15 -3 -15 -8 0 -17 7
-21 15 -3 8 -2 15 3 15 5 0 14 -7 21 -15z m1520 -270 c-13 -111 -24 -166 -43
-210 l-26 -60 -1 50 -1 50 -24 -28 c-31 -35 -31 -29 0 33 30 58 30 61 8 53 -9
-4 -14 -2 -11 3 13 25 37 82 42 104 7 24 7 24 -8 5 -78 -101 -110 -135 -127
-135 -12 0 -19 -7 -19 -19 0 -11 -5 -23 -12 -27 -30 -19 21 141 62 193 18 23
20 24 20 6 0 -10 -7 -28 -15 -39 -8 -10 -14 -32 -14 -49 0 -28 1 -28 9 -7 5
12 14 22 19 22 5 0 12 13 16 30 7 31 25 51 25 28 0 -20 68 61 91 110 12 24 22
42 24 40 1 -2 -6 -70 -15 -153z m-1414 -20 c-4 -25 -11 -43 -17 -40 -10 7 -12
68 -2 105 6 24 6 24 16 3 5 -12 6 -42 3 -68z"/>
<path d="M1329 4441 l-29 -29 0 -257 0 -256 25 -24 24 -25 1155 0 1155 0 21
27 c20 26 21 35 18 291 -3 264 -3 264 -27 283 -23 18 -56 19 -1168 19 l-1145
0 -29 -29z m552 -46 c61 -22 107 -60 131 -111 12 -24 20 -45 17 -48 -2 -2 -45
-7 -95 -10 l-91 -7 -12 30 c-33 78 -147 57 -165 -31 -19 -95 0 -169 49 -192
41 -20 58 -20 95 -1 48 25 39 45 -20 45 l-50 0 0 55 0 55 145 0 145 0 0 -135
0 -135 -55 0 c-42 0 -55 3 -55 15 0 19 2 20 -65 -11 -51 -23 -66 -26 -139 -22
-69 4 -92 9 -137 35 -66 37 -105 90 -121 164 -27 130 45 260 168 304 53 19
200 19 255 0z m1486 3 c14 -22 201 -473 198 -476 -2 -2 -47 -4 -100 -4 -53 0
-98 2 -99 4 -1 2 -9 21 -17 43 l-15 40 -85 3 -86 3 -17 -46 -18 -45 -79 0
c-43 0 -79 1 -79 3 0 2 39 102 86 223 47 120 90 229 95 242 8 21 14 22 108 22
69 0 102 -4 108 -12z m-1077 -248 l0 -251 -97 3 -98 3 -3 248 -2 247 100 0
100 0 0 -250z m385 150 c48 -55 88 -100 89 -100 2 0 1 12 0 28 -2 15 -5 60 -7
100 l-4 72 88 0 89 0 0 -245 0 -245 -87 0 -88 -1 -102 108 -102 108 -1 -101 0
-101 -31 -7 c-17 -3 -53 -6 -80 -6 l-49 0 0 245 0 245 99 0 99 0 87 -100z"/>
<path d="M3226 4186 c-9 -30 -16 -57 -16 -60 0 -3 18 -6 39 -6 l40 0 -21 60
c-11 33 -21 60 -23 60 -2 0 -11 -24 -19 -54z"/>
<path d="M2455 3119 c-4 -6 -5 -12 -2 -15 2 -3 7 2 10 11 7 17 1 20 -8 4z"/>
<path d="M1862 2545 c0 -16 2 -22 5 -12 2 9 2 23 0 30 -3 6 -5 -1 -5 -18z"/>
<path d="M2000 1960 c0 -5 5 -10 11 -10 5 0 7 5 4 10 -3 6 -8 10 -11 10 -2 0
-4 -4 -4 -10z"/>
<path d="M2377 1944 c-15 -13 -27 -27 -27 -29 0 -3 18 -5 41 -5 37 0 40 2 34
23 -11 36 -19 38 -48 11z"/>
<path d="M2470 1927 c0 -27 52 -72 79 -68 34 4 39 10 21 25 -8 6 -20 20 -26
31 -13 24 -74 34 -74 12z"/>
<path d="M2260 1747 c0 -12 52 -86 85 -121 25 -27 28 -28 37 -12 8 14 4 23
-20 44 -17 15 -32 38 -34 52 -3 29 1 29 151 17 46 -4 82 -4 79 -2 -19 20 -298
40 -298 22z"/>
<path d="M2633 1723 c9 -2 23 -2 30 0 6 3 -1 5 -18 5 -16 0 -22 -2 -12 -5z"/>
<path d="M2780 1683 c0 -20 -7 -45 -17 -55 -9 -10 -12 -18 -6 -18 5 0 16 12
24 28 8 15 24 35 37 45 30 25 28 37 -8 37 -28 0 -30 -3 -30 -37z"/>
<path d="M2083 1503 c0 -18 3 -33 6 -33 3 0 17 -17 31 -38 14 -20 43 -54 65
-74 53 -49 29 -48 -46 2 -64 44 -75 40 -31 -11 23 -28 24 -32 7 -25 -11 4 -24
8 -29 9 -15 3 -14 -96 2 -131 13 -29 13 -35 1 -43 -11 -7 -9 -10 9 -15 12 -4
22 -14 22 -24 0 -21 23 -42 41 -37 8 2 11 2 7 0 -5 -3 -8 -13 -8 -23 0 -10 -9
-20 -20 -23 -16 -4 -20 -14 -20 -45 0 -36 3 -40 31 -46 57 -11 81 -6 160 33
42 22 80 37 82 35 2 -3 34 22 71 55 36 34 77 63 91 67 14 3 25 10 25 15 0 5 6
9 14 9 7 0 19 7 26 15 11 13 7 15 -28 15 -42 0 -71 19 -30 21 22 0 22 1 3 9
-11 5 -33 9 -50 9 -59 2 -204 70 -228 109 -4 7 -24 19 -43 27 -18 8 -34 21
-34 29 0 9 -9 21 -20 28 -11 7 -20 18 -20 25 0 18 -41 53 -61 53 -10 0 -19 8
-22 18 -2 9 -4 2 -4 -15z"/>
<path d="M2497 1519 c7 -7 15 -10 18 -7 3 3 -2 9 -12 12 -14 6 -15 5 -6 -5z"/>
</g>
</svg>
